{
  "accessors": [
    {
      "bufferView": 1,
      "componentType": 5126,
      "count": 388,
      "max": [
        77.036956787109375,
        19.171575546264648,
        54.763069152832031
      ],
      "min": [
        37.618431091308594,
        -20.246946334838867,
        -13.42167854309082
      ],
      "type": "VEC3"
    },
    {
      "bufferView": 1,
      "byteOffset": 4656,
      "componentType": 5126,
      "count": 388,
      "max": [
        0.92388027906417847,
        0.92388051748275757,
        1
      ],
      "min": [
        -0.92388105392456055,
        -0.92387974262237549,
        -1
      ],
      "type": "VEC3"
    },
    {
      "bufferView": 2,
      "componentType": 5126,
      "count": 388,
      "max": [
        0,
        0,
        0,
        1
      ],
      "min": [
        0,
        0,
        0,
        1
      ],
      "type": "VEC4"
    },
    {
      "bufferView": 0,
      "componentType": 5125,
      "count": 420,
      "max": [
        387
      ],
      "min": [
        0
      ],
      "type": "SCALAR"
    },
    {
      "bufferView": 1,
      "byteOffset": 9312,
      "componentType": 5126,
      "count": 78,
      "max": [
        65.796478271484375,
        7.9311008453369141,
        35.272171020507812
      ],
      "min": [
        48.858909606933594,
        -9.0064678192138672,
        4.8820233345031738
      ],
      "type": "VEC3"
    },
    {
      "bufferView": 1,
      "byteOffset": 10248,
      "componentType": 5126,
      "count": 78,
      "max": [
        1,
        1,
        1
      ],
      "min": [
        -1,
        -1,
        -0.99840176105499268
      ],
      "type": "VEC3"
    },
    {
      "bufferView": 2,
      "byteOffset": 6208,
      "componentType": 5126,
      "count": 78,
      "max": [
        1,
        1,
        1.2687821708823321e-06,
        1
      ],
      "min": [
        -1,
        -1,
        -4.9564266646484612e-07,
        1
      ],
      "type": "VEC4"
    },
    {
      "bufferView": 0,
      "byteOffset": 1680,
      "componentType": 5125,
      "count": 144,
      "max": [
        77
      ],
      "min": [
        0
      ],
      "type": "SCALAR"
    }
  ],
  "asset": {
    "extras": {
      "author": "Thiago (https://sketchfab.com/mundopilbo)",
      "license": "CC-BY-4.0 (http://creativecommons.org/licenses/by/4.0/)",
      "source": "https://sketchfab.com/models/96cf8b90cc2c4a70b3ce62ffd066b59c",
      "title": "Missile"
    },
    "generator": "Sketchfab-3.18.7",
    "version": "2.0"
  },
  "bufferViews": [
    {
      "buffer": 0,
      "byteLength": 2256,
      "byteOffset": 0,
      "name": "floatBufferViews",
      "target": 34963
    },
    {
      "buffer": 0,
      "byteLength": 11184,
      "byteOffset": 2256,
      "byteStride": 12,
      "name": "floatBufferViews",
      "target": 34962
    },
    {
      "buffer": 0,
      "byteLength": 7456,
      "byteOffset": 13440,
      "byteStride": 16,
      "name": "floatBufferViews",
      "target": 34962
    }
  ],
  "buffers": [
    {
      "byteLength": 20896,
      "uri": "scene.bin"
    }
  ],
  "materials": [
    {
      "doubleSided": true,
      "emissiveFactor": [
        0,
        0,
        0
      ],
      "name": "Material_50",
      "pbrMetallicRoughness": {
        "baseColorFactor": [
          0.611765,
          0,
          0,
          1
        ],
        "metallicFactor": 0,
        "roughnessFactor": 0.89297135959999996
      }
    },
    {
      "doubleSided": true,
      "emissiveFactor": [
        0,
        0,
        0
      ],
      "name": "Material_51",
      "pbrMetallicRoughness": {
        "baseColorFactor": [
          0.58799999999999997,
          0.58799999999999997,
          0.58799999999999997,
          1
        ],
        "metallicFactor": 0,
        "roughnessFactor": 0.89297135959999996
      }
    }
  ],
  "meshes": [
    {
      "name": "Cylinder001_Material #50_0",
      "primitives": [
        {
          "attributes": {
            "NORMAL": 1,
            "POSITION": 0,
            "TANGENT": 2
          },
          "indices": 3,
          "material": 0,
          "mode": 4
        }
      ]
    },
    {
      "name": "Object_Material #51_0",
      "primitives": [
        {
          "attributes": {
            "NORMAL": 5,
            "POSITION": 4,
            "TANGENT": 6
          },
          "indices": 7,
          "material": 1,
          "mode": 4
        }
      ]
    }
  ],
  "nodes": [
    {
      "children": [
        1
      ],
      "name": "RootNode (gltf orientation matrix)",
      "rotation": [
        -0.70710678118654746,
        -0,
        -0,
        0.70710678118654757
      ]
    },
    {
      "children": [
        2
      ],
      "name": "RootNode (model correction matrix)"
    },
    {
      "children": [
        3
      ],
      "matrix": [
        1,
        0,
        0,
        0,
        0,
        0,
        1,
        0,
        0,
        -1,
        0,
        0,
        0,
        0,
        0,
        1
      ],
      "name": "387904e93b554fdc93367d6767122ae4.fbx"
    },
    {
      "children": [
        4,
        6
      ],
      "name": "RootNode"
    },
    {
      "children": [
        5
      ],
      "matrix": [
        1.6292067085035731e-07,
        6.6174441115633162e-24,
        0.99999988079069713,
        0,
        -4.721552926347328e-08,
        1.0801653861999501,
        7.6923866145342456e-15,
        0,
        -1.7665257453918206,
        -7.7217293843916091e-08,
        2.8780359382252895e-07,
        0,
        33.472591400146484,
        -8.3314180374145508,
        -23.191705703735352,
        1
      ],
      "name": "Cylinder001"
    },
    {
      "mesh": 0,
      "name": "Cylinder001_Material #50_0"
    },
    {
      "children": [
        7
      ],
      "matrix": [
        1.6292067073933501e-07,
        1.3234888223126632e-23,
        0.99999988079069713,
        0,
        -1.7598127754971228e-07,
        1.0801653861999367,
        2.867099117655579e-14,
        0,
        -1.7665257453917986,
        -2.8780357292524115e-07,
        2.878035936264052e-07,
        0,
        33.472591400146484,
        -8.3314180374145508,
        -23.191705703735352,
        1
      ],
      "name": "Object"
    },
    {
      "mesh": 1,
      "name": "Object_Material #51_0"
    }
  ],
  "scene": 0,
  "scenes": [
    {
      "name": "OSG_Scene",
      "nodes": [
        0
      ]
    }
  ]
}

